# xmcd CD database file
#
# Track frame offsets:
#	150
#	27457
#	54202
#	66545
#	80032
#	108355
#	128025
#	138440
#	146667
#	160807
#	167882
#	187425
#	197840
#	208127
#	219440
#	232810
#	246182
#	259555
#	280127
#	303537
#
# Disc length: 4240 seconds
#
# Revision: 1
# Processed by: cddbd v1.5.1PL0 Copyright (c) Steve Scherf et al.
# Submitted via: CDex 1.51
#
DISCID=34108e14
DTITLE=Various Artist - TRANCE MAGIC Vol.3
DYEAR=2002
DGENRE=Trance
TTITLE0=HARD STUFF - Birth Departure
TTITLE1=C.G mix - Marquis Spot
TTITLE2=Nuero Societia - Shaft to The White Sky
TTITLE3=DJ SKY FIELD - Truem Ring
TTITLE4=T.N.P. Presents DJ eight - ALEGRIA
TTITLE5=MC Henry - Simple Day
TTITLE6=DJ FLY - CYGNAS (TG Remix)
TTITLE7=Paul Manchenter - End of Fall
TTITLE8=Shoum Wynne - Piece of Coin
TTITLE9=Jim Holley - Dark Point
TTITLE10=HARD STUFF - Zero Degrees
TTITLE11=Marrisa H - HALLUCINATION
TTITLE12=Kim Patric - Dry Train
TTITLE13=FTK - CAMIE (original mix)
TTITLE14=Tatsu featuring MIKU - FEATHER
TTITLE15=DJ SKY FIELD featuring DJ FLY - Past Away
TTITLE16=EMO Master - Cube DI Scene
TTITLE17=SUBJECT S - Tap Throw
TTITLE18=Marrisa H featuring DJ FLY - VIOLENT
TTITLE19=oto - Black Fruit
EXTD=YEAR: 2002
EXTT0=
EXTT1=
EXTT2=
EXTT3=
EXTT4=
EXTT5=
EXTT6=
EXTT7=
EXTT8=
EXTT9=
EXTT10=
EXTT11=
EXTT12=
EXTT13=
EXTT14=
EXTT15=
EXTT16=
EXTT17=
EXTT18=
EXTT19=
PLAYORDER=
